<svg id="visual" viewBox="0 0 900 200" width="900" height="200" xmlns="http://www.w3.org/2000/svg" xmlns:xlink="http://www.w3.org/1999/xlink" version="1.1"><rect x="0" y="0" width="900" height="200" fill="#0f0000"></rect><path d="M0 135L7.5 135.2C15 135.3 30 135.7 45 138.3C60 141 75 146 90 148.3C105 150.7 120 150.3 135 148.3C150 146.3 165 142.7 180 145.8C195 149 210 159 225 161C240 163 255 157 270 155C285 153 300 155 315 156.2C330 157.3 345 157.7 360 155.5C375 153.3 390 148.7 405 145.7C420 142.7 435 141.3 450 141.3C465 141.3 480 142.7 495 143C510 143.3 525 142.7 540 145C555 147.3 570 152.7 585 151.3C600 150 615 142 630 138.3C645 134.7 660 135.3 675 138.5C690 141.7 705 147.3 720 149C735 150.7 750 148.3 765 145.3C780 142.3 795 138.7 810 137.2C825 135.7 840 136.3 855 141.2C870 146 885 155 892.5 159.5L900 164L900 0L892.5 0C885 0 870 0 855 0C840 0 825 0 810 0C795 0 780 0 765 0C750 0 735 0 720 0C705 0 690 0 675 0C660 0 645 0 630 0C615 0 600 0 585 0C570 0 555 0 540 0C525 0 510 0 495 0C480 0 465 0 450 0C435 0 420 0 405 0C390 0 375 0 360 0C345 0 330 0 315 0C300 0 285 0 270 0C255 0 240 0 225 0C210 0 195 0 180 0C165 0 150 0 135 0C120 0 105 0 90 0C75 0 60 0 45 0C30 0 15 0 7.5 0L0 0Z" fill="#0f0000"></path><path d="M0 114L7.5 118C15 122 30 130 45 134.5C60 139 75 140 90 142.8C105 145.7 120 150.3 135 148C150 145.7 165 136.3 180 129.5C195 122.7 210 118.3 225 121.7C240 125 255 136 270 138.5C285 141 300 135 315 134.3C330 133.7 345 138.3 360 137.8C375 137.3 390 131.7 405 130.8C420 130 435 134 450 135.7C465 137.3 480 136.7 495 139C510 141.3 525 146.7 540 147.2C555 147.7 570 143.3 585 137.8C600 132.3 615 125.7 630 125C645 124.3 660 129.7 675 130.5C690 131.3 705 127.7 720 127.2C735 126.7 750 129.3 765 131.3C780 133.3 795 134.7 810 132.7C825 130.7 840 125.3 855 122.3C870 119.3 885 118.7 892.5 118.3L900 118L900 0L892.5 0C885 0 870 0 855 0C840 0 825 0 810 0C795 0 780 0 765 0C750 0 735 0 720 0C705 0 690 0 675 0C660 0 645 0 630 0C615 0 600 0 585 0C570 0 555 0 540 0C525 0 510 0 495 0C480 0 465 0 450 0C435 0 420 0 405 0C390 0 375 0 360 0C345 0 330 0 315 0C300 0 285 0 270 0C255 0 240 0 225 0C210 0 195 0 180 0C165 0 150 0 135 0C120 0 105 0 90 0C75 0 60 0 45 0C30 0 15 0 7.5 0L0 0Z" fill="#2a0e0e"></path><path d="M0 129L7.5 128.5C15 128 30 127 45 127.2C60 127.3 75 128.7 90 128.2C105 127.7 120 125.3 135 125.7C150 126 165 129 180 126.5C195 124 210 116 225 112C240 108 255 108 270 109.5C285 111 300 114 315 113.7C330 113.3 345 109.7 360 109.8C375 110 390 114 405 116.8C420 119.7 435 121.3 450 122.8C465 124.3 480 125.7 495 122.8C510 120 525 113 540 108.5C555 104 570 102 585 101.8C600 101.7 615 103.3 630 108.5C645 113.7 660 122.3 675 126.5C690 130.7 705 130.3 720 124.8C735 119.3 750 108.7 765 103.7C780 98.7 795 99.3 810 101.8C825 104.3 840 108.7 855 111.3C870 114 885 115 892.5 115.5L900 116L900 0L892.5 0C885 0 870 0 855 0C840 0 825 0 810 0C795 0 780 0 765 0C750 0 735 0 720 0C705 0 690 0 675 0C660 0 645 0 630 0C615 0 600 0 585 0C570 0 555 0 540 0C525 0 510 0 495 0C480 0 465 0 450 0C435 0 420 0 405 0C390 0 375 0 360 0C345 0 330 0 315 0C300 0 285 0 270 0C255 0 240 0 225 0C210 0 195 0 180 0C165 0 150 0 135 0C120 0 105 0 90 0C75 0 60 0 45 0C30 0 15 0 7.5 0L0 0Z" fill="#451317"></path><path d="M0 85L7.5 85.8C15 86.7 30 88.3 45 89.8C60 91.3 75 92.7 90 92.7C105 92.7 120 91.3 135 93.2C150 95 165 100 180 103.3C195 106.7 210 108.3 225 106.5C240 104.7 255 99.3 270 96C285 92.7 300 91.3 315 92.7C330 94 345 98 360 98.3C375 98.7 390 95.3 405 92C420 88.7 435 85.3 450 86.3C465 87.3 480 92.7 495 94.8C510 97 525 96 540 95C555 94 570 93 585 94.2C600 95.3 615 98.7 630 98.7C645 98.7 660 95.3 675 92.5C690 89.7 705 87.3 720 89.2C735 91 750 97 765 98.5C780 100 795 97 810 97C825 97 840 100 855 98.5C870 97 885 91 892.5 88L900 85L900 0L892.5 0C885 0 870 0 855 0C840 0 825 0 810 0C795 0 780 0 765 0C750 0 735 0 720 0C705 0 690 0 675 0C660 0 645 0 630 0C615 0 600 0 585 0C570 0 555 0 540 0C525 0 510 0 495 0C480 0 465 0 450 0C435 0 420 0 405 0C390 0 375 0 360 0C345 0 330 0 315 0C300 0 285 0 270 0C255 0 240 0 225 0C210 0 195 0 180 0C165 0 150 0 135 0C120 0 105 0 90 0C75 0 60 0 45 0C30 0 15 0 7.5 0L0 0Z" fill="#61171c"></path><path d="M0 80L7.5 80.3C15 80.7 30 81.3 45 78.5C60 75.7 75 69.3 90 70C105 70.7 120 78.3 135 83.3C150 88.3 165 90.7 180 87C195 83.3 210 73.7 225 70.7C240 67.7 255 71.3 270 72.2C285 73 300 71 315 73.7C330 76.3 345 83.7 360 86.3C375 89 390 87 405 82.2C420 77.3 435 69.7 450 67.8C465 66 480 70 495 70.3C510 70.7 525 67.3 540 70.2C555 73 570 82 585 83C600 84 615 77 630 74.3C645 71.7 660 73.3 675 75.8C690 78.3 705 81.7 720 84C735 86.3 750 87.7 765 88.8C780 90 795 91 810 91C825 91 840 90 855 85.8C870 81.7 885 74.3 892.5 70.7L900 67L900 0L892.5 0C885 0 870 0 855 0C840 0 825 0 810 0C795 0 780 0 765 0C750 0 735 0 720 0C705 0 690 0 675 0C660 0 645 0 630 0C615 0 600 0 585 0C570 0 555 0 540 0C525 0 510 0 495 0C480 0 465 0 450 0C435 0 420 0 405 0C390 0 375 0 360 0C345 0 330 0 315 0C300 0 285 0 270 0C255 0 240 0 225 0C210 0 195 0 180 0C165 0 150 0 135 0C120 0 105 0 90 0C75 0 60 0 45 0C30 0 15 0 7.5 0L0 0Z" fill="#7f1a21"></path><path d="M0 55L7.5 54.5C15 54 30 53 45 52.8C60 52.7 75 53.3 90 56.8C105 60.3 120 66.7 135 69.7C150 72.7 165 72.3 180 71.5C195 70.7 210 69.3 225 69.2C240 69 255 70 270 66.8C285 63.7 300 56.3 315 53.7C330 51 345 53 360 55.8C375 58.7 390 62.3 405 63.3C420 64.3 435 62.7 450 60.8C465 59 480 57 495 56C510 55 525 55 540 57.3C555 59.7 570 64.3 585 65.7C600 67 615 65 630 62.3C645 59.7 660 56.3 675 53.8C690 51.3 705 49.7 720 51.7C735 53.7 750 59.3 765 59C780 58.7 795 52.3 810 49.5C825 46.7 840 47.3 855 49.8C870 52.3 885 56.7 892.5 58.8L900 61L900 0L892.5 0C885 0 870 0 855 0C840 0 825 0 810 0C795 0 780 0 765 0C750 0 735 0 720 0C705 0 690 0 675 0C660 0 645 0 630 0C615 0 600 0 585 0C570 0 555 0 540 0C525 0 510 0 495 0C480 0 465 0 450 0C435 0 420 0 405 0C390 0 375 0 360 0C345 0 330 0 315 0C300 0 285 0 270 0C255 0 240 0 225 0C210 0 195 0 180 0C165 0 150 0 135 0C120 0 105 0 90 0C75 0 60 0 45 0C30 0 15 0 7.5 0L0 0Z" fill="#9e1d24"></path><path d="M0 28L7.5 28.7C15 29.3 30 30.7 45 32.2C60 33.7 75 35.3 90 35.3C105 35.3 120 33.7 135 32.5C150 31.3 165 30.7 180 33.2C195 35.7 210 41.3 225 43.8C240 46.3 255 45.7 270 43.3C285 41 300 37 315 37.5C330 38 345 43 360 43.5C375 44 390 40 405 37.5C420 35 435 34 450 36.2C465 38.3 480 43.7 495 45.5C510 47.3 525 45.7 540 45.3C555 45 570 46 585 47.3C600 48.7 615 50.3 630 48.3C645 46.3 660 40.7 675 36.7C690 32.7 705 30.3 720 32.5C735 34.7 750 41.3 765 45C780 48.7 795 49.3 810 47.5C825 45.7 840 41.3 855 38.2C870 35 885 33 892.5 32L900 31L900 0L892.5 0C885 0 870 0 855 0C840 0 825 0 810 0C795 0 780 0 765 0C750 0 735 0 720 0C705 0 690 0 675 0C660 0 645 0 630 0C615 0 600 0 585 0C570 0 555 0 540 0C525 0 510 0 495 0C480 0 465 0 450 0C435 0 420 0 405 0C390 0 375 0 360 0C345 0 330 0 315 0C300 0 285 0 270 0C255 0 240 0 225 0C210 0 195 0 180 0C165 0 150 0 135 0C120 0 105 0 90 0C75 0 60 0 45 0C30 0 15 0 7.5 0L0 0Z" fill="#bd2126"></path><path d="M0 19L7.5 18.2C15 17.3 30 15.7 45 14.5C60 13.3 75 12.7 90 14.7C105 16.7 120 21.3 135 21.3C150 21.3 165 16.7 180 17.3C195 18 210 24 225 25.7C240 27.3 255 24.7 270 23.8C285 23 300 24 315 24.2C330 24.3 345 23.7 360 21.5C375 19.3 390 15.7 405 17C420 18.3 435 24.7 450 27.8C465 31 480 31 495 30.5C510 30 525 29 540 27.5C555 26 570 24 585 24C600 24 615 26 630 25.2C645 24.3 660 20.7 675 18.3C690 16 705 15 720 14.8C735 14.7 750 15.3 765 15C780 14.7 795 13.3 810 14.7C825 16 840 20 855 23.2C870 26.3 885 28.7 892.5 29.8L900 31L900 0L892.5 0C885 0 870 0 855 0C840 0 825 0 810 0C795 0 780 0 765 0C750 0 735 0 720 0C705 0 690 0 675 0C660 0 645 0 630 0C615 0 600 0 585 0C570 0 555 0 540 0C525 0 510 0 495 0C480 0 465 0 450 0C435 0 420 0 405 0C390 0 375 0 360 0C345 0 330 0 315 0C300 0 285 0 270 0C255 0 240 0 225 0C210 0 195 0 180 0C165 0 150 0 135 0C120 0 105 0 90 0C75 0 60 0 45 0C30 0 15 0 7.5 0L0 0Z" fill="#dc2626"></path></svg>